<?xml version="1.0" encoding="UTF-8" standalone="no"?>
<!-- Created with Inkscape (http://www.inkscape.org/) -->

<svg
   width="32"
   height="32"
   viewBox="0 0 32 32"
   version="1.1"
   id="svg1"
   xml:space="preserve"
   inkscape:version="1.3.2 (091e20e, 2023-11-25, custom)"
   sodipodi:docname="hint-2.svg"
   xmlns:inkscape="http://www.inkscape.org/namespaces/inkscape"
   xmlns:sodipodi="http://sodipodi.sourceforge.net/DTD/sodipodi-0.dtd"
   xmlns:xlink="http://www.w3.org/1999/xlink"
   xmlns="http://www.w3.org/2000/svg"
   xmlns:svg="http://www.w3.org/2000/svg"><sodipodi:namedview
     id="namedview1"
     pagecolor="#ffffff"
     bordercolor="#000000"
     borderopacity="0.25"
     inkscape:showpageshadow="2"
     inkscape:pageopacity="0.0"
     inkscape:pagecheckerboard="0"
     inkscape:deskcolor="#d1d1d1"
     inkscape:document-units="px"
     inkscape:zoom="17.964932"
     inkscape:cx="21.374977"
     inkscape:cy="13.275864"
     inkscape:window-width="1920"
     inkscape:window-height="1009"
     inkscape:window-x="-8"
     inkscape:window-y="-8"
     inkscape:window-maximized="1"
     inkscape:current-layer="layer1"
     showgrid="true"><inkscape:grid
       id="grid2"
       units="px"
       originx="0"
       originy="0"
       spacingx="1"
       spacingy="1"
       empcolor="#0099e5"
       empopacity="0.30196078"
       color="#0099e5"
       opacity="0.14901961"
       empspacing="8"
       dotted="false"
       gridanglex="30"
       gridanglez="30"
       visible="true" /></sodipodi:namedview><defs
     id="defs1" /><g
     inkscape:label="Layer 1"
     inkscape:groupmode="layer"
     id="layer1"><path
       style="fill:#000000;stroke-width:2;-inkscape-stroke:none"
       d="M 17.5,17.5 C 17.299453,17.267079 17.012826,15.102498 17.5,15 20.845033,14.296225 22.001781,11.918488 22,10 21.9974,7.1527537 20,5 16,5 11,5 9,8 10,11 h 2.590406 c 0,-4.5665221 6.207508,-4.320567 6.519652,-1.9394214 C 19.657756,13.238609 14.406518,11.902626 14.5,15 v 2.5 m 0,2 V 22 H 11 C 11,18 6,17 6,11 6,7 9,1 16,1 c 7,0 10,6 10,10 0,6 -5,7 -5,11 h -3.5 v -2.5"
       id="path1"
       sodipodi:nodetypes="csssccscccccsssccc" /><rect
       style="fill:#000000;stroke-width:2;-inkscape-stroke:none"
       id="rect2"
       width="10"
       height="2"
       x="11"
       y="23"
       rx="1"
       ry="1" /><use
       x="0"
       y="0"
       xlink:href="#rect2"
       id="use2"
       transform="translate(0,3)" /><use
       x="0"
       y="0"
       xlink:href="#use2"
       id="use3"
       transform="translate(0,3)" /></g></svg>
