<?xml version="1.0" encoding="UTF-8" standalone="no"?>
<!-- Created with Inkscape (http://www.inkscape.org/) -->

<svg
   width="32px"
   height="32px"
   viewBox="0 0 32 32"
   id="SVGRoot"
   version="1.1"
   enable-background="new"
   inkscape:version="1.3.2 (091e20e, 2023-11-25, custom)"
   sodipodi:docname="shrubbery.svg"
   xmlns:inkscape="http://www.inkscape.org/namespaces/inkscape"
   xmlns:sodipodi="http://sodipodi.sourceforge.net/DTD/sodipodi-0.dtd"
   xmlns:xlink="http://www.w3.org/1999/xlink"
   xmlns="http://www.w3.org/2000/svg"
   xmlns:svg="http://www.w3.org/2000/svg">
  <defs
     id="defs4787">
    <clipPath
       clipPathUnits="userSpaceOnUse"
       id="patternClipPath">
      <rect
         y="0"
         x="0"
         height="32"
         width="32"
         id="clipPathRect"
         style="color:#000000;display:inline;overflow:visible;visibility:visible;opacity:1;fill:#ffff00;fill-opacity:1;fill-rule:nonzero;stroke:none;stroke-width:20;stroke-linecap:square;stroke-linejoin:miter;stroke-miterlimit:4;stroke-dasharray:none;stroke-dashoffset:1.09889996;stroke-opacity:1;marker:none;enable-background:accumulate" />
    </clipPath>
    <marker
       inkscape:stockid="Arrow2Mend"
       orient="auto"
       refY="0.0"
       refX="0.0"
       id="Arrow2Mend"
       style="overflow:visible;"
       inkscape:isstock="true">
      <path
         id="path19572"
         style="fill-rule:evenodd;stroke-width:0.625;stroke-linejoin:round;stroke:#000000;stroke-opacity:1;fill:#000000;fill-opacity:1"
         d="M 8.7185878,4.0337352 L -2.2072895,0.016013256 L 8.7185884,-4.0017078 C 6.9730900,-1.6296469 6.9831476,1.6157441 8.7185878,4.0337352 z "
         transform="scale(0.6) rotate(180) translate(0,0)" />
    </marker>
  </defs>
  <sodipodi:namedview
     id="base"
     pagecolor="#ffffff"
     bordercolor="#666666"
     borderopacity="1.0"
     inkscape:pageopacity="0"
     inkscape:pageshadow="2"
     inkscape:zoom="8.8388348"
     inkscape:cx="78.290863"
     inkscape:cy="16.178603"
     inkscape:document-units="px"
     inkscape:current-layer="designBottom"
     showgrid="false"
     inkscape:pagecheckerboard="true"
     inkscape:window-width="1920"
     inkscape:window-height="1080"
     inkscape:window-x="0"
     inkscape:window-y="0"
     inkscape:window-maximized="1"
     inkscape:blackoutopacity="0.0"
     showborder="true"
     inkscape:showpageshadow="true"
     borderlayer="false"
     inkscape:deskcolor="#d1d1d1" />
  <g
     inkscape:groupmode="layer"
     id="patternLayer"
     inkscape:label="Pattern"
     style="display:inline">
    <g
       id="g8891"
       sodipodi:insensitive="true">
      <use
         x="0"
         y="0"
         xlink:href="#fullPattern"
         id="fullPatternClone"
         transform="translate(64, -32)"
         width="32"
         height="32"
         inkscape:tile-cx="16.0"
         inkscape:tile-cy="16.0"
         inkscape:tile-w="32"
         inkscape:tile-h="32"
         inkscape:tile-x0="32"
         inkscape:tile-y0="32" />
      <use
         height="100%"
         width="100%"
         x="0"
         y="0"
         inkscape:tiled-clone-of="#fullPatternClone"
         xlink:href="#fullPatternClone"
         transform="translate(0, 32)"
         id="clonePreview1" />
      <use
         height="100%"
         width="100%"
         x="0"
         y="0"
         inkscape:tiled-clone-of="#fullPatternClone"
         xlink:href="#fullPatternClone"
         transform="translate(0, 64)"
         id="clonePreview2" />
      <use
         height="100%"
         width="100%"
         x="0"
         y="0"
         inkscape:tiled-clone-of="#fullPatternClone"
         xlink:href="#fullPatternClone"
         transform="translate(32, 0)"
         id="clonePreview3" />
      <use
         height="100%"
         width="100%"
         x="0"
         y="0"
         inkscape:tiled-clone-of="#fullPatternClone"
         xlink:href="#fullPatternClone"
         transform="translate(32, 32)"
         id="clonePreview4" />
      <use
         height="100%"
         width="100%"
         x="0"
         y="0"
         inkscape:tiled-clone-of="#fullPatternClone"
         xlink:href="#fullPatternClone"
         transform="translate(32, 64)"
         id="clonePreview5" />
      <use
         height="100%"
         width="100%"
         x="0"
         y="0"
         inkscape:tiled-clone-of="#fullPatternClone"
         xlink:href="#fullPatternClone"
         transform="translate(64, 0)"
         id="clonePreview6" />
      <use
         height="100%"
         width="100%"
         x="0"
         y="0"
         inkscape:tiled-clone-of="#fullPatternClone"
         xlink:href="#fullPatternClone"
         transform="translate(64, 32)"
         id="clonePreview7" />
      <use
         height="100%"
         width="100%"
         x="0"
         y="0"
         inkscape:tiled-clone-of="#fullPatternClone"
         xlink:href="#fullPatternClone"
         transform="translate(64, 64)"
         id="clonePreview8" />
    </g>
    <use
       style="opacity:0.3"
       height="100%"
       width="100%"
       id="phantomBottom"
       xlink:href="#designBottom"
       y="0"
       x="0"
       sodipodi:insensitive="true" />
    <use
       style="opacity:0.3"
       height="100%"
       width="100%"
       id="phantomTop"
       xlink:href="#designTop"
       y="0"
       x="0"
       sodipodi:insensitive="true" />
    <g
       id="infoGroup"
       sodipodi:insensitive="true"
       transform="scale(0.32, 0.32)">
      <rect
         style="opacity:1;fill:#ffffff;fill-opacity:1;fill-rule:evenodd;stroke:none;stroke-width:76.99082184;stroke-linecap:round;stroke-linejoin:round;stroke-miterlimit:4;stroke-dasharray:none;stroke-dashoffset:0;stroke-opacity:1;paint-order:normal"
         id="rect4130"
         width="526.66248"
         height="360.00635"
         x="-348.83969"
         y="-380.86212" />
      <text
         xml:space="preserve"
         style="font-style:normal;font-variant:normal;font-weight:normal;font-stretch:normal;line-height:0%;font-family:sans-serif;-inkscape-font-specification:Verdana;letter-spacing:0px;word-spacing:0px;fill:#000000;fill-opacity:1;stroke:none"
         x="-326.82172"
         y="-349.80621"
         id="text8664"><tspan
           style="font-style:normal;font-variant:normal;font-weight:bold;font-stretch:normal;font-size:23.6686px;line-height:1.25;font-family:sans-serif;-inkscape-font-specification:'sans-serif Bold'"
           sodipodi:role="line"
           id="tspan8666"
           x="-326.82172"
           y="-349.80621">Seamless pattern</tspan></text>
      <flowRoot
         xml:space="preserve"
         id="infoText"
         style="font-style:normal;font-variant:normal;font-weight:normal;font-stretch:normal;line-height:0.01%;font-family:sans-serif;-inkscape-font-specification:sans-serif;letter-spacing:0px;word-spacing:0px;fill:#000000;fill-opacity:1;stroke:none"
         transform="translate(-709.3014,-231.7039)"><flowRegion
           id="flowRegion11597"><rect
             ry="0.97061312"
             id="rect11599"
             width="491.7114"
             height="324.99371"
             x="383.75671"
             y="-110.4523"
             style="font-style:normal;font-variant:normal;font-weight:normal;font-stretch:normal;font-size:13.75px;font-family:sans-serif;-inkscape-font-specification:sans-serif" /></flowRegion><flowPara
           style="font-style:normal;font-variant:normal;font-weight:normal;font-stretch:normal;font-size:12.5px;line-height:1.25;font-family:Cantarell;-inkscape-font-specification:Cantarell"
           id="flowPara6756">Use the layers &quot;<flowSpan
   style="font-style:normal;font-variant:normal;font-weight:bold;font-stretch:normal;font-family:Cantarell;-inkscape-font-specification:'Cantarell Bold'"
   id="flowSpan7476">Pattern Foreground</flowSpan>&quot; and &quot;<flowSpan
   style="font-style:normal;font-variant:normal;font-weight:bold;font-stretch:normal;font-family:Cantarell;-inkscape-font-specification:'Cantarell Bold'"
   id="flowSpan7478">Pattern Background</flowSpan>&quot; on the pattern page to create your design. The separation into two layers will make it easier for you to create and edit overlapping content like a foreground drawing with a background fill.</flowPara><flowPara
           style="font-style:normal;font-variant:normal;font-weight:normal;font-stretch:normal;font-size:12.5px;line-height:1.25;font-family:Cantarell;-inkscape-font-specification:Cantarell"
           id="flowPara7456"> </flowPara><flowPara
           style="font-style:normal;font-variant:normal;font-weight:normal;font-stretch:normal;font-size:12.5px;line-height:1.25;font-family:Cantarell;-inkscape-font-specification:Cantarell"
           id="flowPara7458">The layer named &quot;<flowSpan
   style="font-style:normal;font-variant:normal;font-weight:bold;font-stretch:normal;font-family:Cantarell;-inkscape-font-specification:'Cantarell Bold'"
   id="flowSpan7480">Pattern</flowSpan>&quot; is for using the seamless pattern, copying it to other documents, adding opacity etc. </flowPara><flowPara
           style="font-style:normal;font-variant:normal;font-weight:normal;font-stretch:normal;font-size:12.5px;line-height:1.25;font-family:Cantarell;-inkscape-font-specification:Cantarell"
           id="flowPara7460">Select the group on the page, and use <flowSpan
   style="font-style:normal;font-variant:normal;font-weight:bold;font-stretch:normal;font-family:Cantarell;-inkscape-font-specification:'Cantarell Bold'"
   id="flowSpan7484">Object-&gt;Pattern-&gt;Objects to Pattern</flowSpan> to convert your creation into a fill pattern.</flowPara><flowPara
           style="font-style:normal;font-variant:normal;font-weight:normal;font-stretch:normal;font-size:12.5px;line-height:1.25;font-family:Cantarell;-inkscape-font-specification:Cantarell"
           id="flowPara7462"> </flowPara><flowPara
           style="font-style:normal;font-variant:normal;font-weight:normal;font-stretch:normal;font-size:12.5px;line-height:1.25;font-family:Cantarell;-inkscape-font-specification:Cantarell"
           id="flowPara7464">The layer &quot;<flowSpan
   style="font-style:normal;font-variant:normal;font-weight:bold;font-stretch:normal;font-family:Cantarell;-inkscape-font-specification:'Cantarell Bold'"
   id="flowSpan7482">Preview Background</flowSpan>&quot; provides an easy way to preview your creation if it contains transparency.</flowPara><flowPara
           style="font-style:normal;font-variant:normal;font-weight:normal;font-stretch:normal;font-size:12.5px;line-height:1.25;font-family:Cantarell;-inkscape-font-specification:Cantarell"
           id="flowPara7466">Changing this layer's visibility will not alter the pattern.</flowPara><flowPara
           style="font-style:normal;font-variant:normal;font-weight:normal;font-stretch:normal;font-size:12.5px;line-height:1.25;font-family:Cantarell;-inkscape-font-specification:Cantarell"
           id="flowPara7468"> </flowPara><flowPara
           style="font-style:normal;font-variant:normal;font-weight:normal;font-stretch:normal;font-size:12.5px;line-height:1.25;font-family:Cantarell;-inkscape-font-specification:Cantarell"
           id="flowPara7470">If an object is moved outside the pattern/page limits, it will be difficult to select it. </flowPara><flowPara
           style="font-style:normal;font-variant:normal;font-weight:normal;font-stretch:normal;font-size:12.5px;line-height:1.25;font-family:Cantarell;-inkscape-font-specification:Cantarell"
           id="flowPara7472">To move it back onto the page, select the object using the rubberband selection (click and drag a selection box) with the selection tool.</flowPara><flowPara
           style="font-style:normal;font-variant:normal;font-weight:normal;font-stretch:normal;font-size:12.5px;line-height:1.25;font-family:Cantarell;-inkscape-font-specification:Cantarell"
           id="flowPara7474">Then move it back onto the page, using the arrow keys or the &quot;Align and Distribute&quot; dialog (Shift+Ctrl+A).</flowPara></flowRoot>
      <path
         sodipodi:nodetypes="cccc"
         inkscape:connector-curvature="0"
         id="path19539"
         d="m -354.4906,-359.49 h -6.1704 V 51.51566 h 229.6052"
         style="color:#000000;text-decoration:none;text-decoration-line:none;display:inline;overflow:visible;visibility:visible;fill:none;stroke:#000000;stroke-width:3.77952766;stroke-linecap:butt;stroke-linejoin:miter;stroke-miterlimit:4;stroke-dasharray:none;stroke-dashoffset:0;stroke-opacity:1;marker:none;marker-end:url(#Arrow2Mend);enable-background:accumulate" />
    </g>
    <g
       id="textPreview"
       sodipodi:insensitive="true"
       transform="matrix(0.32,0,0,0.32,20.48,0)"
       style="display:none">
      <path
         d="m -29.56541,100 v -7.16704 h 2.00731 v 4.51126 h 1.91761 v -4.24223 h 2.00731 v 4.24223 h 4.36647 V 100 Z"
         style="font-style:normal;font-variant:normal;font-weight:bold;font-stretch:normal;font-size:medium;line-height:125%;font-family:sans-serif;-inkscape-font-specification:'sans-serif Bold';letter-spacing:0px;word-spacing:0px;fill:#000000;fill-opacity:1;stroke:none;stroke-width:1px;stroke-linecap:butt;stroke-linejoin:miter;stroke-opacity:1"
         id="path9845"
         inkscape:connector-curvature="0" />
      <path
         d="m -22.7433,87.81814 q 0,0.77256 0.26214,1.16575 0.26214,0.38628 0.77256,0.38628 0.46906,0 0.73808,-0.3104 0.26214,-0.31731 0.26214,-0.87604 0,-0.6967 -0.49667,-1.17266 -0.50355,-0.47596 -1.25547,-0.47596 h -0.28278 z m -0.93124,-3.7732 h 4.40783 v 2.49017 h -1.14504 q 0.70359,0.49666 1.02773,1.11747 0.31735,0.62082 0.31735,1.51066 0,1.20024 -0.69671,1.95213 -0.70359,0.74498 -1.82103,0.74498 -1.35893,0 -1.99355,-0.93123 -0.63462,-0.93812 -0.63462,-2.93854 v -1.45547 h -0.19316 q -0.58628,0 -0.8553,0.46216 -0.2759,0.46217 -0.2759,1.44168 0,0.79327 0.15859,1.47617 0.15868,0.6829 0.47603,1.26923 h -1.88321 q -0.19317,-0.79327 -0.28966,-1.59344 -0.10355,-0.80016 -0.10355,-1.60033 0,-2.09008 0.82778,-3.01441 0.8209,-0.93123 2.67642,-0.93123 z"
         style="font-style:normal;font-variant:normal;font-weight:bold;font-stretch:normal;font-size:medium;line-height:125%;font-family:sans-serif;-inkscape-font-specification:'sans-serif Bold';letter-spacing:0px;word-spacing:0px;fill:#000000;fill-opacity:1;stroke:none;stroke-width:1px;stroke-linecap:butt;stroke-linejoin:miter;stroke-opacity:1"
         id="path9847"
         inkscape:connector-curvature="0" />
      <path
         d="m -26.75105,75.72598 h 1.87625 q -0.33111,0.79327 -0.49658,1.53136 -0.16556,0.73808 -0.16556,1.39338 0,0.7036 0.17932,1.04849 0.17243,0.338 0.53803,0.338 0.29663,0 0.45531,-0.25522 0.15858,-0.26212 0.23453,-0.93122 l 0.0624,-0.43458 q 0.2415,-1.89694 0.79329,-2.55225 0.55189,-0.65531 1.73142,-0.65531 1.23474,0 1.85551,0.91054 0.62086,0.91053 0.62086,2.7178 0,0.76568 -0.12419,1.58654 -0.11722,0.81396 -0.35872,1.67621 h -1.87624 q 0.35872,-0.73809 0.53803,-1.51067 0.17941,-0.77947 0.17941,-1.57963 0,-0.72429 -0.20005,-1.08988 -0.20004,-0.3656 -0.59325,-0.3656 -0.33111,0 -0.4897,0.25524 -0.16555,0.24832 -0.25525,1.00019 l -0.055,0.43458 q -0.20692,1.64862 -0.76568,2.31082 -0.55868,0.66221 -1.69684,0.66221 -1.22787,0 -1.82112,-0.84156 -0.59325,-0.84155 -0.59325,-2.57984 0,-0.6829 0.10355,-1.43477 0.10346,-0.75188 0.32415,-1.63483 z"
         style="font-style:normal;font-variant:normal;font-weight:bold;font-stretch:normal;font-size:medium;line-height:125%;font-family:sans-serif;-inkscape-font-specification:'sans-serif Bold';letter-spacing:0px;word-spacing:0px;fill:#000000;fill-opacity:1;stroke:none;stroke-width:1px;stroke-linecap:butt;stroke-linejoin:miter;stroke-opacity:1"
         id="path9849"
         inkscape:connector-curvature="0" />
      <path
         d="m -29.18596,70.67666 h 2.19351 v -2.54535 h 1.7659 v 2.54535 h 3.27654 q 0.53804,0 0.7312,-0.21383 0.1862,-0.21384 0.1862,-0.84846 v -1.26922 h 1.7659 v 2.11768 q 0,1.46237 -0.60701,2.07628 -0.61398,0.60703 -2.07629,0.60703 h -3.27654 v 1.22784 h -1.7659 v -1.22784 h -2.19351 z"
         style="font-style:normal;font-variant:normal;font-weight:bold;font-stretch:normal;font-size:medium;line-height:125%;font-family:sans-serif;-inkscape-font-specification:'sans-serif Bold';letter-spacing:0px;word-spacing:0px;fill:#000000;fill-opacity:1;stroke:none;stroke-width:1px;stroke-linecap:butt;stroke-linejoin:miter;stroke-opacity:1"
         id="path9851"
         inkscape:connector-curvature="0" />
      <path
         d="m -20.38415,59.23292 h 4.05599 v 2.46948 h -10.66429 v -2.46948 h 1.13128 q -0.67598,-0.51044 -0.99334,-1.13127 -0.32423,-0.62081 -0.32423,-1.42788 0,-1.42787 1.13826,-2.3453 1.13119,-0.91744 2.91782,-0.91744 1.78654,0 2.92471,0.91744 1.13128,0.91743 1.13128,2.3453 0,0.80707 -0.31735,1.42788 -0.32414,0.62083 -1.00013,1.13127 z m -5.00108,-1.64171 q 0,0.79327 0.58637,1.22093 0.5794,0.42078 1.6762,0.42078 1.09671,0 1.68308,-0.42078 0.5794,-0.42766 0.5794,-1.22093 0,-0.79327 -0.5794,-1.20715 -0.5794,-0.42078 -1.68308,-0.42078 -1.10368,0 -1.68317,0.42078 -0.5794,0.41388 -0.5794,1.20715 z"
         style="font-style:normal;font-variant:normal;font-weight:bold;font-stretch:normal;font-size:medium;line-height:125%;font-family:sans-serif;-inkscape-font-specification:'sans-serif Bold';letter-spacing:0px;word-spacing:0px;fill:#000000;fill-opacity:1;stroke:none;stroke-width:1px;stroke-linecap:butt;stroke-linejoin:miter;stroke-opacity:1"
         id="path9853"
         inkscape:connector-curvature="0" />
      <path
         d="m -24.88856,45.83706 q -0.1518,0.3242 -0.22077,0.6484 -0.0761,0.31731 -0.0761,0.64151 0,0.95193 0.61389,1.46927 0.6071,0.51045 1.74526,0.51045 h 3.55932 v 2.46948 h -7.72574 v -2.46948 h 1.26923 q -0.7588,-0.47595 -1.10367,-1.08988 -0.35185,-0.62081 -0.35185,-1.48306 0,-0.12416 0.0138,-0.26902 0.009,-0.14486 0.0413,-0.42078 l 2.23496,-0.007 z"
         style="font-style:normal;font-variant:normal;font-weight:bold;font-stretch:normal;font-size:medium;line-height:125%;font-family:sans-serif;-inkscape-font-specification:'sans-serif Bold';letter-spacing:0px;word-spacing:0px;fill:#000000;fill-opacity:1;stroke:none;stroke-width:1px;stroke-linecap:butt;stroke-linejoin:miter;stroke-opacity:1"
         id="path9855"
         inkscape:connector-curvature="0" />
      <path
         d="m -23.15027,36.88348 h 0.7036 v 5.77361 q 0.86914,-0.0897 1.30372,-0.62772 0.43457,-0.53804 0.43457,-1.50375 0,-0.77948 -0.22765,-1.59344 -0.23453,-0.82086 -0.70359,-1.6831 h 1.90385 q 0.33111,0.87604 0.49667,1.75208 0.17243,0.87604 0.17243,1.75209 0,2.09698 -1.06231,3.26274 -1.06919,1.15886 -2.99368,1.15886 -1.89009,0 -2.97304,-1.13817 -1.08304,-1.14506 -1.08304,-3.14547 0,-1.82107 1.0968,-2.91095 1.0968,-1.09678 2.93167,-1.09678 z m -0.8209,2.53846 q -0.70359,0 -1.13119,0.41388 -0.43458,0.40698 -0.43458,1.06918 0,0.71739 0.40697,1.16576 0.40009,0.44836 1.1588,0.55873 z"
         style="font-style:normal;font-variant:normal;font-weight:bold;font-stretch:normal;font-size:medium;line-height:125%;font-family:sans-serif;-inkscape-font-specification:'sans-serif Bold';letter-spacing:0px;word-spacing:0px;fill:#000000;fill-opacity:1;stroke:none;stroke-width:1px;stroke-linecap:butt;stroke-linejoin:miter;stroke-opacity:1"
         id="path9857"
         inkscape:connector-curvature="0" />
      <path
         d="m -26.99245,35.99364 v -2.46947 l 5.33907,-1.92454 -5.33907,-1.91764 v -2.47637 l 7.72574,3.04201 v 2.7109 z"
         style="font-style:normal;font-variant:normal;font-weight:bold;font-stretch:normal;font-size:medium;line-height:125%;font-family:sans-serif;-inkscape-font-specification:'sans-serif Bold';letter-spacing:0px;word-spacing:0px;fill:#000000;fill-opacity:1;stroke:none;stroke-width:1px;stroke-linecap:butt;stroke-linejoin:miter;stroke-opacity:1"
         id="path9859"
         inkscape:connector-curvature="0" />
      <path
         d="m -26.99245,25.80534 v -2.46948 h 7.72574 v 2.46948 z m -3.00753,0 v -2.46948 h 2.01419 v 2.46948 z"
         style="font-style:normal;font-variant:normal;font-weight:bold;font-stretch:normal;font-size:medium;line-height:125%;font-family:sans-serif;-inkscape-font-specification:'sans-serif Bold';letter-spacing:0px;word-spacing:0px;fill:#000000;fill-opacity:1;stroke:none;stroke-width:1px;stroke-linecap:butt;stroke-linejoin:miter;stroke-opacity:1"
         id="path9861"
         inkscape:connector-curvature="0" />
      <path
         d="m -23.15027,13.23722 h 0.7036 v 5.77361 q 0.86914,-0.0897 1.30372,-0.62772 0.43457,-0.53805 0.43457,-1.50376 0,-0.77947 -0.22765,-1.59344 -0.23453,-0.82085 -0.70359,-1.6831 h 1.90385 q 0.33111,0.87604 0.49667,1.75208 0.17243,0.87605 0.17243,1.75209 0,2.09698 -1.06231,3.26275 -1.06919,1.15885 -2.99368,1.15885 -1.89009,0 -2.97304,-1.13816 -1.08304,-1.14506 -1.08304,-3.14548 0,-1.82106 1.0968,-2.91094 1.0968,-1.09678 2.93167,-1.09678 z m -0.8209,2.53845 q -0.70359,0 -1.13119,0.41389 -0.43458,0.40697 -0.43458,1.06918 0,0.71738 0.40697,1.16575 0.40009,0.44837 1.1588,0.55874 z"
         style="font-style:normal;font-variant:normal;font-weight:bold;font-stretch:normal;font-size:medium;line-height:125%;font-family:sans-serif;-inkscape-font-specification:'sans-serif Bold';letter-spacing:0px;word-spacing:0px;fill:#000000;fill-opacity:1;stroke:none;stroke-width:1px;stroke-linecap:butt;stroke-linejoin:miter;stroke-opacity:1"
         id="path9863"
         inkscape:connector-curvature="0" />
      <path
         d="M -26.99245,12.06456 V 9.664065 l 5.32522,-1.29682 -5.32522,-1.303718 V 5.001033 l 5.2701,-1.29682 -5.2701,-1.303717 V 1.267492e-7 L -19.26671,2.034903 v 2.697109 l -5.31147,1.303717 5.31147,1.296819 v 2.697112 z"
         style="font-style:normal;font-variant:normal;font-weight:bold;font-stretch:normal;font-size:medium;line-height:125%;font-family:sans-serif;-inkscape-font-specification:'sans-serif Bold';letter-spacing:0px;word-spacing:0px;fill:#000000;fill-opacity:1;stroke:none;stroke-width:1px;stroke-linecap:butt;stroke-linejoin:miter;stroke-opacity:1"
         id="path9865"
         inkscape:connector-curvature="0" />
    </g>
    <g
       inkscape:label="Helper Layer (don't use)"
       clip-path="url(#patternClipPath)"
       id="fullPattern"
       style="display:inline">
      <g
         inkscape:groupmode="layer"
         id="designBottom"
         inkscape:label="Pattern Background"
         transform="scale(0.32, 0.32)">
        <rect
           y="0"
           x="0"
           height="100"
           width="100"
           id="rect9111"
           style="color:#000000;display:inline;overflow:visible;visibility:visible;fill:url(#radialGradient3070);fill-opacity:1;fill-rule:nonzero;stroke:none;stroke-width:0;marker:none;enable-background:accumulate" />
        <path
           style="fill:none;stroke:#000000;stroke-width:6.25;-inkscape-stroke:none"
           d="m 48.436816,57.629203 c -0.783335,-2.427181 -0.243625,-4.988375 0,-7.424622 0.07037,-0.703597 -0.06403,-1.417119 0,-2.121319 0.168812,-1.856846 1.061362,-3.607931 1.767765,-5.303303 2.533407,-6.080172 7.03271,-10.534175 12.727922,-13.788581 0.91521,-0.522976 1.828428,-1.08088 2.828428,-1.414214 1.617044,-0.539014 3.21766,0.671427 4.596194,-0.707106"
           id="path2" />
        <path
           style="fill:none;stroke:#000000;stroke-width:6.25;-inkscape-stroke:none"
           d="m 50.558134,66.468037 c 0.150782,-8.144259 7.768491,-17.095606 15.202797,-19.79899 2.457922,-0.893788 4.976844,1.060659 7.424622,1.060659"
           id="path3" />
        <path
           style="fill:none;stroke:#000000;stroke-width:6.25;-inkscape-stroke:none"
           d="M 50.558134,66.468037 C 49.261772,65.996631 47.902831,65.670716 46.669047,65.053825 45.961941,64.700272 46.000619,63.618909 45.608388,62.932503 44.621866,61.206091 43.2315,59.278928 41.7193,57.982756 38.271012,55.027081 34.648122,53.469712 30.405592,51.97235 c -2.867786,-1.012163 -5.122153,-2.226513 -8.131728,-2.828428 -2.779093,-0.555819 -5.625742,-1.414216 -8.485282,-1.414216 -0.11785,0 0,0.235719 0,0.353556"
           id="path4" />
        <path
           style="fill:none;stroke:#000000;stroke-width:6.25;-inkscape-stroke:none"
           d="M 45.608388,62.932503 C 46.6131,58.921962 44.987262,55.440931 43.840622,51.618794 43.314906,49.866413 43.004959,48.05115 42.426406,46.315494 40.758919,41.313034 36.761525,36.797316 32.173359,34.294678 30.562181,33.415856 26.556435,31.426322 26.516504,31.466253 26.216042,31.766722 26.0451,32.173359 25.809397,32.526913"
           id="path5" />
        <path
           style="fill:none;stroke:#000000;stroke-width:6.25;-inkscape-stroke:none"
           d="m 50.204581,42.779959 c -1.767765,-1.296362 -4.163493,-2.01655 -5.3033,-3.889087 -1.462862,-2.403272 3.771391,-12.806758 4.949747,-14.849241 1.030203,-1.785688 2.08936,-3.555108 3.181981,-5.303301 2.184404,-3.495044 3.870332,-6.872643 8.485282,-4.949748 2.073825,0.864094 1.708037,0.647377 2.828425,1.767767"
           id="path6" />
        <path
           style="fill:none;stroke:#000000;stroke-width:6.25;-inkscape-stroke:none"
           d="m 44.901281,38.890872 c 0.73046,-5.303847 2.656469,-12.037491 -1.414215,-16.617008 -2.759032,-3.103912 -0.694797,-0.617598 -3.181979,-2.828427 -0.62284,-0.553637 -1.219012,-1.14062 -1.767768,-1.767767 -0.27981,-0.319784 -0.367172,-0.80571 -0.707106,-1.060661 -0.649332,-0.486999 -2.471341,0.353554 -3.181982,0.353554"
           id="path7" />
        <path
           style="fill:none;stroke:#000000;stroke-width:6.25;-inkscape-stroke:none"
           d="m 63.639609,72.832 c -0.505925,1.011847 -0.897962,0.466669 1.767769,-0.353556 1.9686,-0.60571 4.868166,-1.93871 6.717513,-0.353553 0.447396,0.383484 0.669181,0.9738 1.060662,1.414215 3.907925,4.396419 5.823741,7.696172 8.131728,13.081475 0.92486,2.158006 1.69661,4.028056 2.121319,6.36396 0.256472,1.410597 0.707106,2.808922 0.707106,4.24264 0,0.931756 -0.353553,1.841063 -0.353553,2.772819 0,0.50392 0.304183,0.96833 0.353553,1.46982 0.06928,0.70371 0.165375,2.80882 0,2.12132 -0.281303,-1.16947 -0.235709,-2.39409 -0.353553,-3.59114 -0.970579,-2.850894 0.852352,-4.452293 1.767768,-7.015458 2.307692,-6.461539 3.071203,-10.320374 7.778174,-15.909903 3.295352,-3.91323 11.444155,-5.303301 16.263455,-5.303301"
           id="path8" />
        <path
           style="fill:none;stroke:#000000;stroke-width:6.25;-inkscape-stroke:none"
           d="m 81.317281,86.620581 c 1.17851,0.235719 2.339647,0.826694 3.535531,0.707106 0.3518,-0.03519 0,-0.707106 0,-1.060659 0,-0.942809 0,-1.885619 0,-2.828428 0,-0.471403 0,-0.942809 0,-1.414213 C 84.734969,81.081578 84.535778,80.145403 84.499259,79.195959 84.378353,76.052181 85.3248,69.785372 82.731494,66.821591 81.762578,65.714259 79.549147,64.169803 78.1353,63.639609 77.271403,63.31565 75.722606,63.348234 74.953319,62.57895 c -0.202281,-0.202281 0,-1.401866 0,-1.767766"
           id="path9" />
        <path
           style="fill:none;stroke:#000000;stroke-width:6.25;-inkscape-stroke:none"
           d="m 84.852812,83.4386 c 0.82496,-0.235688 1.960094,-0.02062 2.474875,-0.707106 0.430116,-0.573488 -0.288656,-1.407403 -0.353553,-2.121322 -0.05334,-0.586835 -0.07788,-1.183678 0,-1.767766 0.80996,-6.0747 2.618585,-11.748019 6.36396,-16.617009 0.4601,-0.598125 0.830175,-1.289916 1.414215,-1.767766 2.089857,-1.709884 3.594907,-1.664537 6.010411,-1.060662 0.80845,0.202125 3.3082,0.353553 2.47487,0.353553 -1.0792,0 -2.15839,0 -3.23759,0"
           id="path10" />
        <path
           style="fill:none;stroke:#000000;stroke-width:6.25;-inkscape-stroke:none"
           d="m 82.731494,66.821591 c 1.178512,-0.589257 2.556156,-0.886328 3.535534,-1.767766 0.350391,-0.315353 0,-0.942809 0,-1.414216 0,-2.499181 -0.205625,-6.923128 -2.121322,-8.838834 -1.683381,-1.683381 -4.066803,-2.946903 -6.010406,-4.242641 -0.277344,-0.184906 -0.397616,-0.583309 -0.707106,-0.707106 -0.328269,-0.131312 -0.72525,-0.111812 -1.060663,0 -0.111812,0.03728 0.09806,0.418925 0,0.353553 -1.118031,-0.745356 -2.121319,-1.649915 -3.181978,-2.474875"
           id="path11" />
        <path
           style="fill:none;stroke:#000000;stroke-width:6.25;-inkscape-stroke:none"
           d="m 86.267028,65.053825 c 0.298594,-4.896159 1.846706,-8.267056 4.242641,-12.374369 0.873865,-1.498059 0.605403,-2.222062 2.121319,-2.828428 1.131493,-0.452597 3.103275,0.710653 3.181981,0.707106 C 97.219566,50.494759 98.604322,50.186044 100,50"
           id="path12" />
        <path
           style="fill:none;stroke:#000000;stroke-width:6.25;-inkscape-stroke:none"
           d="m 28.637825,122.32947 c -0.269944,-3.29402 -1.133022,-6.49218 -0.707107,-9.89949 0.554417,-4.43534 1.922449,-8.44109 3.889088,-12.37437 0.05272,-0.105407 -0.08334,-0.270219 0,-0.353554 0.440875,-0.440875 1.326891,-0.973337 1.767766,-1.414212 0.272812,-0.272813 0.99809,-1.206153 1.414212,-1.414216 0.757035,-0.378515 1.988566,0.06638 2.828429,-0.353553 1.163837,-0.581919 4.295309,-3.788791 4.596193,-3.889087 0.33541,-0.111813 0.707107,0 1.06066,0"
           id="path13" />
        <path
           style="fill:none;stroke:#000000;stroke-width:6.25;-inkscape-stroke:none"
           d="m 28.637825,122.32947 c -1.178512,-1.53206 -2.596834,-2.90653 -3.535534,-4.59619 -0.286169,-0.5151 0.05335,-1.18093 0,-1.76777 -0.0649,-0.71391 -0.24455,-1.41279 -0.353554,-2.12132 -0.503405,-3.27213 -0.821807,-4.67867 -2.474873,-7.77817 -2.003308,-3.7562 -5.564851,-5.91841 -8.485282,-8.838839 -2.341329,-2.341328 1.783557,0.364081 -2.474874,-2.474872 -0.154981,-0.103312 -1.6466864,-0.08072 -1.7677664,0 -0.2192657,0.146188 -0.1672157,0.520766 -0.3535535,0.707107 -0.083334,0.08334 -0.3444047,-0.1175 -0.3535534,0 -0.1174938,1.508959 0,3.027056 0,4.540584"
           id="path14" />
        <path
           style="fill:none;stroke:#000000;stroke-width:6.25;-inkscape-stroke:none"
           d="m 22.273864,106.06602 c 0.824958,-0.11785 2.070171,0.37491 2.474873,-0.35356 0.47196,-0.84953 -0.488582,-1.88148 -0.707106,-2.82842 -0.135124,-0.58554 -0.223195,-1.18116 -0.353554,-1.76777 -0.839882,-3.77947 -2.991454,-12.319764 -5.303301,-15.556348 -0.534999,-0.749 -1.215499,-1.384966 -1.767767,-2.121322 -0.552763,-0.737019 -0.140863,-0.04695 -1.06066,-0.353553 -0.316227,-0.105409 -0.429757,-0.522206 -0.707106,-0.707106 -0.77696,-0.517975 -1.889478,-0.475266 -2.474874,-1.06066"
           id="path15" />
        <path
           style="fill:none;stroke:#000000;stroke-width:6.25;-inkscape-stroke:none"
           d="m 23.688077,101.11627 c 0.824958,-0.82496 1.921757,-1.447658 2.474874,-2.474873 0.02056,-0.03819 -0.01891,-3.864531 0,-4.242641 0.164606,-3.292131 -0.04132,-5.9622 2.12132,-8.485281 1.043212,-1.217081 2.395635,-2.231047 3.889088,-2.828428 0.500213,-0.200094 1.767766,-0.187625 1.767766,-0.707106"
           id="path16" />
        <path
           style="fill:none;stroke:#000000;stroke-width:6.25;-inkscape-stroke:none"
           d="m 28.284271,85.913475 c -1.06066,0.353553 -2.070785,0.937194 -3.18198,1.060659 -0.351391,0.03903 0,-0.707106 0,-1.060659 0,-1.093434 0.10985,-2.139322 -0.353554,-3.181981 -0.581301,-1.307928 -3.753203,-6.527213 -4.949747,-7.424622 -0.421637,-0.316228 -0.942809,-0.471403 -1.414214,-0.707106"
           id="path17" />
        <path
           style="fill:none;stroke:#000000;stroke-width:6.25;-inkscape-stroke:none"
           d="m 24.748737,82.731494 c 0.353554,-0.353553 0.812591,-0.626538 1.06066,-1.06066 0.805676,-1.409934 0.851817,-3.450021 1.414214,-4.94975 0.275228,-0.733937 1.661797,-3.314681 2.121321,-3.889084 0.164621,-0.205781 0.471404,-0.235687 0.707106,-0.353556 0.235703,-0.353553 0.471405,-0.707106 0.707107,-1.06066"
           id="path18" />
      </g>
      <g
         inkscape:groupmode="layer"
         id="designTop"
         inkscape:label="Pattern Foreground"
         transform="scale(0.32, 0.32)" />
      <g
         id="designBottomGenerator"
         sodipodi:insensitive="true">
        <use
           height="100%"
           width="100%"
           id="bottom1"
           transform="translate(-32, -32)"
           xlink:href="#designBottom"
           y="0"
           x="0" />
        <use
           height="100%"
           width="100%"
           id="bottom2"
           transform="translate(0, -32)"
           xlink:href="#designBottom"
           y="0"
           x="0" />
        <use
           height="100%"
           width="100%"
           id="bottom3"
           transform="translate(32, -32)"
           xlink:href="#designBottom"
           y="0"
           x="0" />
        <use
           height="100%"
           width="100%"
           id="bottom4"
           transform="translate(-32, 0)"
           xlink:href="#designBottom"
           y="0"
           x="0" />
        <use
           height="100%"
           width="100%"
           id="bottom5"
           xlink:href="#designBottom"
           y="0"
           x="0" />
        <use
           height="100%"
           width="100%"
           id="bottom6"
           transform="translate(32, 0)"
           xlink:href="#designBottom"
           y="0"
           x="0" />
        <use
           height="100%"
           width="100%"
           id="bottom7"
           transform="translate(-32, 32)"
           xlink:href="#designBottom"
           y="0"
           x="0" />
        <use
           height="100%"
           width="100%"
           id="bottom8"
           transform="translate(0, 32)"
           xlink:href="#designBottom"
           y="0"
           x="0" />
        <use
           transform="translate(32, 32)"
           height="100%"
           width="100%"
           id="bottom9"
           xlink:href="#designBottom"
           y="0"
           x="0" />
      </g>
      <g
         id="designTopGenerator"
         sodipodi:insensitive="true">
        <use
           height="100%"
           width="100%"
           id="top1"
           transform="translate(-32, -32)"
           xlink:href="#designTop"
           y="0"
           x="0" />
        <use
           height="100%"
           width="100%"
           id="top2"
           transform="translate(0, -32)"
           xlink:href="#designTop"
           y="0"
           x="0" />
        <use
           height="100%"
           width="100%"
           id="top3"
           transform="translate(32, -32)"
           xlink:href="#designTop"
           y="0"
           x="0" />
        <use
           height="100%"
           width="100%"
           id="top4"
           transform="translate(-32, 0)"
           xlink:href="#designTop"
           y="0"
           x="0" />
        <use
           height="100%"
           width="100%"
           id="top5"
           xlink:href="#designTop"
           y="0"
           x="0" />
        <use
           height="100%"
           width="100%"
           id="top6"
           transform="translate(32, 0)"
           xlink:href="#designTop"
           y="0"
           x="0" />
        <use
           height="100%"
           width="100%"
           id="top7"
           transform="translate(-32, 32)"
           xlink:href="#designTop"
           y="0"
           x="0" />
        <use
           height="100%"
           width="100%"
           id="top8"
           transform="translate(0, 32)"
           xlink:href="#designTop"
           y="0"
           x="0" />
        <use
           transform="translate(32, 32)"
           height="100%"
           width="100%"
           id="top9"
           xlink:href="#designTop"
           y="0"
           x="0" />
      </g>
    </g>
  </g>
  <inkscape:_templateinfo
     id="_templateinfo10">
    <inkscape:_name
       id="_name12">Seamless Pattern</inkscape:_name>
    <inkscape:_shortdesc
       id="_shortdesc14">Seamless Pattern</inkscape:_shortdesc>
    <inkscape:_keywords
       id="_keywords16">Seamless Pattern</inkscape:_keywords>
  </inkscape:_templateinfo>
</svg>
