<?xml version="1.0" encoding="UTF-8" standalone="no"?>
<!-- Created with Inkscape (http://www.inkscape.org/) -->

<svg
   width="32"
   height="32"
   viewBox="0 0 32 32"
   version="1.1"
   id="svg1"
   xml:space="preserve"
   inkscape:version="1.3.2 (091e20e, 2023-11-25, custom)"
   sodipodi:docname="trash.svg"
   xmlns:inkscape="http://www.inkscape.org/namespaces/inkscape"
   xmlns:sodipodi="http://sodipodi.sourceforge.net/DTD/sodipodi-0.dtd"
   xmlns="http://www.w3.org/2000/svg"
   xmlns:svg="http://www.w3.org/2000/svg"><sodipodi:namedview
     id="namedview1"
     pagecolor="#ffffff"
     bordercolor="#000000"
     borderopacity="0.25"
     inkscape:showpageshadow="2"
     inkscape:pageopacity="0.0"
     inkscape:pagecheckerboard="0"
     inkscape:deskcolor="#d1d1d1"
     inkscape:document-units="px"
     inkscape:zoom="17.964932"
     inkscape:cx="21.180153"
     inkscape:cy="20.122537"
     inkscape:window-width="1920"
     inkscape:window-height="1009"
     inkscape:window-x="-8"
     inkscape:window-y="-8"
     inkscape:window-maximized="1"
     inkscape:current-layer="layer1"
     showgrid="true"><inkscape:grid
       id="grid2"
       units="px"
       originx="0"
       originy="0"
       spacingx="1"
       spacingy="1"
       empcolor="#0099e5"
       empopacity="0.30196078"
       color="#0099e5"
       opacity="0.14901961"
       empspacing="8"
       dotted="false"
       gridanglex="30"
       gridanglez="30"
       visible="true" /></sodipodi:namedview><defs
     id="defs1" /><g
     inkscape:label="Layer 1"
     inkscape:groupmode="layer"
     id="layer1"><path
       d="M 3.2706738,10.183139 V 8.1941813 Q 3.3275026,7.1144616 4.1230842,6.375706 4.9186667,5.6369505 5.9983862,5.6369505 H 8.7260995 V 4.7277128 q 0,-1.136547 0.7955824,-1.9321304 Q 10.317265,2 11.453812,2 h 9.092376 q 1.136548,0 1.93213,0.7955824 0.795584,0.7955834 0.795584,1.9321304 v 0.9092377 h 2.727716 q 1.079719,0 1.875302,0.7387555 0.795583,0.7387556 0.852411,1.8184753 v 1.9889577 q 0,0.738755 -0.539848,1.278628 -0.539844,0.539874 -1.278628,0.539846 v 15.457039 q 0,1.534339 -1.051293,2.585661 -1.051291,1.051318 -2.58566,1.05129 H 8.7260995 q -1.5343387,0 -2.5856568,-1.05129 -1.0513214,-1.051294 -1.051294,-2.585661 V 12.001613 q -0.7387553,0 -1.278628,-0.539846 -0.5398752,-0.539846 -0.5398469,-1.278628 z m 1.8184749,0 H 26.910855 V 8.3646634 q 0,-0.3977915 -0.255738,-0.65353 Q 26.399379,7.455395 26.001587,7.455395 H 5.9983587 q -0.3977912,0 -0.6535302,0.2557384 -0.2557382,0.2557385 -0.2557382,0.65353 v 1.8184756 z m 1.818475,17.275513 q 0,0.738756 0.5398477,1.278629 0.5398443,0.539876 1.2786281,0.539847 H 23.273902 q 0.738759,0 1.27863,-0.539847 0.539876,-0.539844 0.539848,-1.278629 V 12.001613 H 6.9076237 Z M 8.7260995,26.549415 V 14.729328 q 0,-0.397793 0.2557381,-0.65353 0.255739,-0.255738 0.6535303,-0.255738 h 1.8184751 q 0.397791,0 0.65353,0.255738 0.255736,0.255738 0.255736,0.65353 v 11.820088 q 0,0.397792 -0.255736,0.653527 -0.255739,0.255739 -0.65353,0.255739 H 9.6353679 q -0.3977913,0 -0.6535303,-0.255739 -0.2557381,-0.255735 -0.2557381,-0.653528 z m 0.9092374,0 H 11.453812 V 14.729328 H 9.6353369 Z M 10.544574,5.6369505 H 21.455427 V 4.7277128 q 0,-0.3977915 -0.255736,-0.6535299 -0.255739,-0.2557385 -0.65353,-0.2557385 h -9.092376 q -0.397792,0 -0.65353,0.2557385 -0.255739,0.2557384 -0.255739,0.6535299 V 5.6369505 Z M 14.181525,26.549415 V 14.729328 q 0,-0.397793 0.255738,-0.65353 0.25574,-0.255738 0.653531,-0.255738 h 1.818475 q 0.397792,0 0.65353,0.255738 0.255735,0.255738 0.255735,0.65353 v 11.820088 q 0,0.397792 -0.255735,0.653527 -0.255738,0.255739 -0.65353,0.255739 h -1.818475 q -0.397791,0 -0.653531,-0.255739 -0.255738,-0.255735 -0.255738,-0.653528 z m 0.909238,0 h 1.818476 V 14.729328 h -1.818476 z m 4.546188,0 V 14.729328 q 0,-0.397793 0.255738,-0.65353 0.255739,-0.255738 0.65353,-0.255738 h 1.818475 q 0.397792,0 0.653531,0.255738 0.255735,0.255738 0.255735,0.65353 v 11.820088 q 0,0.397792 -0.255735,0.653527 -0.255739,0.255739 -0.653531,0.255739 h -1.818475 q -0.397791,0 -0.65353,-0.255739 -0.255738,-0.255735 -0.255738,-0.653528 z m 0.909237,0 h 1.818476 V 14.729328 h -1.818476 z"
       id="path1"
       style="stroke-width:0.999996" /></g></svg>
