<?xml version="1.0" encoding="UTF-8" standalone="no"?>
<!-- Created with Inkscape (http://www.inkscape.org/) -->

<svg
   width="32"
   height="32"
   viewBox="0 0 32 32"
   version="1.1"
   id="svg1"
   xml:space="preserve"
   inkscape:version="1.3.2 (091e20e, 2023-11-25, custom)"
   sodipodi:docname="level-info.svg"
   xmlns:inkscape="http://www.inkscape.org/namespaces/inkscape"
   xmlns:sodipodi="http://sodipodi.sourceforge.net/DTD/sodipodi-0.dtd"
   xmlns:xlink="http://www.w3.org/1999/xlink"
   xmlns="http://www.w3.org/2000/svg"
   xmlns:svg="http://www.w3.org/2000/svg"><sodipodi:namedview
     id="namedview1"
     pagecolor="#ffffff"
     bordercolor="#000000"
     borderopacity="0.25"
     inkscape:showpageshadow="2"
     inkscape:pageopacity="0.0"
     inkscape:pagecheckerboard="0"
     inkscape:deskcolor="#d1d1d1"
     inkscape:document-units="px"
     inkscape:zoom="17.964932"
     inkscape:cx="18.424784"
     inkscape:cy="15.224104"
     inkscape:window-width="1920"
     inkscape:window-height="1009"
     inkscape:window-x="-8"
     inkscape:window-y="-8"
     inkscape:window-maximized="1"
     inkscape:current-layer="layer1"
     showgrid="true"><inkscape:grid
       id="grid2"
       units="px"
       originx="0"
       originy="0"
       spacingx="1"
       spacingy="1"
       empcolor="#0099e5"
       empopacity="0.30196078"
       color="#0099e5"
       opacity="0.14901961"
       empspacing="8"
       dotted="false"
       gridanglex="30"
       gridanglez="30"
       visible="true" /></sodipodi:namedview><defs
     id="defs1" /><g
     inkscape:label="Layer 1"
     inkscape:groupmode="layer"
     id="layer1"><path
       style="fill:#000000;stroke-width:2;-inkscape-stroke:none"
       d="m 42,2 c 0,0 -2,-2 -4,0 -2,2 0,4 0,4 l 1,1 4,-4 m 1,1 -1,1 7,7 -0.5,0.5 -7,-7 -1,1 7,7 -0.5,0.5 -7,-7 -1,1 8,8 h 1 c 0,-1 2,-3 3,-3 v -1 z m 8,10 c -1,0 -2,1 -2,2 h 2"
       id="path3"
       sodipodi:nodetypes="csccccccccccccccccccccc" /><path
       style="fill:#000000;stroke-width:2;-inkscape-stroke:none"
       d="m 3,8 4,4 -2,2 1,1 2,-2 2,2 -1,1 1,1 1,-1 2,2 -2,2 1,1 2,-2 2,2 -1,1 1,1 1,-1 2,2 -2,2 1,1 2,-2 4,4 H 3 Z m 4,11 v 6 h 6 z"
       id="path2"
       sodipodi:nodetypes="cccccccccccccccccccccccccccc" /><use
       x="0"
       y="0"
       xlink:href="#path3"
       id="use3"
       transform="rotate(105.56872,31.819604,-0.35088581)" /></g></svg>
