<?xml version="1.0" encoding="UTF-8" standalone="no"?>
<!-- Created with Inkscape (http://www.inkscape.org/) -->

<svg
   width="32"
   height="32"
   viewBox="0 0 32 32"
   version="1.1"
   id="svg1"
   xml:space="preserve"
   inkscape:version="1.3.2 (091e20e, 2023-11-25, custom)"
   sodipodi:docname="level-info.svg"
   xmlns:inkscape="http://www.inkscape.org/namespaces/inkscape"
   xmlns:sodipodi="http://sodipodi.sourceforge.net/DTD/sodipodi-0.dtd"
   xmlns="http://www.w3.org/2000/svg"
   xmlns:svg="http://www.w3.org/2000/svg"><sodipodi:namedview
     id="namedview1"
     pagecolor="#ffffff"
     bordercolor="#000000"
     borderopacity="0.25"
     inkscape:showpageshadow="2"
     inkscape:pageopacity="0.0"
     inkscape:pagecheckerboard="0"
     inkscape:deskcolor="#d1d1d1"
     inkscape:document-units="px"
     inkscape:zoom="17.964932"
     inkscape:cx="17.81248"
     inkscape:cy="12.496568"
     inkscape:window-width="1920"
     inkscape:window-height="1009"
     inkscape:window-x="-8"
     inkscape:window-y="-8"
     inkscape:window-maximized="1"
     inkscape:current-layer="layer1"
     showgrid="true"><inkscape:grid
       id="grid2"
       units="px"
       originx="0"
       originy="0"
       spacingx="1"
       spacingy="1"
       empcolor="#0099e5"
       empopacity="0.30196078"
       color="#0099e5"
       opacity="0.14901961"
       empspacing="8"
       dotted="false"
       gridanglex="30"
       gridanglez="30"
       visible="true" /></sodipodi:namedview><defs
     id="defs1" /><g
     inkscape:label="Layer 1"
     inkscape:groupmode="layer"
     id="layer1"><path
       style="fill:#000000;stroke-width:2;-inkscape-stroke:none"
       d="M 23.587175,2.912312 22.337848,3.5750201 24.988679,8.572329 23.739352,9.2350366 23.076644,7.985709 14.331354,12.624664 14,12 22.74529,7.3610452 22.082583,6.1117186 13.337293,10.750673 13.005939,10.12601 21.751229,5.4870548 21.088521,4.2377276 11.093903,9.5393903 10.800594,10.495408 c 0.956017,0.29331 2.281433,2.791964 1.988124,3.747981 L 11.8327,13.950079 c 0.29331,-0.956017 -0.369398,-2.205344 -1.325416,-2.498654 l -0.5866188,1.912036 3.8240698,1.173238 12.493272,-6.627078 c 0,0 2.498654,-1.3254156 1.173238,-3.8240698 C 26.08583,1.5868965 23.587175,2.912312 23.587175,2.912312 Z"
       id="path3"
       sodipodi:nodetypes="cccccccccccccccccccccsc" /><path
       style="fill:#000000;stroke-width:2;-inkscape-stroke:none"
       d="m 3,8 4,4 -2,2 1,1 2,-2 2,2 -1,1 1,1 1,-1 2,2 -2,2 1,1 2,-2 2,2 -1,1 1,1 1,-1 2,2 -2,2 1,1 2,-2 4,4 H 3 Z m 4,11 v 6 h 6 z"
       id="path2"
       sodipodi:nodetypes="cccccccccccccccccccccccccccc" /></g></svg>
