<?xml version="1.0" encoding="UTF-8" standalone="no"?>
<!-- Created with Inkscape (http://www.inkscape.org/) -->

<svg
   width="32"
   height="32"
   viewBox="0 0 32 32"
   version="1.1"
   id="svg1"
   xml:space="preserve"
   inkscape:version="1.3.2 (091e20e, 2023-11-25, custom)"
   sodipodi:docname="open.svg"
   xmlns:inkscape="http://www.inkscape.org/namespaces/inkscape"
   xmlns:sodipodi="http://sodipodi.sourceforge.net/DTD/sodipodi-0.dtd"
   xmlns="http://www.w3.org/2000/svg"
   xmlns:svg="http://www.w3.org/2000/svg"><sodipodi:namedview
     id="namedview1"
     pagecolor="#ffffff"
     bordercolor="#000000"
     borderopacity="0.25"
     inkscape:showpageshadow="2"
     inkscape:pageopacity="0.0"
     inkscape:pagecheckerboard="0"
     inkscape:deskcolor="#d1d1d1"
     inkscape:document-units="px"
     inkscape:zoom="8.982466"
     inkscape:cx="13.916"
     inkscape:cy="4.9540961"
     inkscape:window-width="1920"
     inkscape:window-height="1009"
     inkscape:window-x="-8"
     inkscape:window-y="-8"
     inkscape:window-maximized="1"
     inkscape:current-layer="layer1"
     showgrid="true"><inkscape:grid
       id="grid2"
       units="px"
       originx="0"
       originy="0"
       spacingx="1"
       spacingy="1"
       empcolor="#0099e5"
       empopacity="0.30196078"
       color="#0099e5"
       opacity="0.14901961"
       empspacing="8"
       dotted="false"
       gridanglex="30"
       gridanglez="30"
       visible="true" /></sodipodi:namedview><defs
     id="defs1" /><g
     inkscape:label="Layer 1"
     inkscape:groupmode="layer"
     id="layer1"><path
       id="rect1"
       style="fill:#ffffff;stroke:#000000;stroke-width:2"
       d="m 5,6 h 7.695296 L 15,3 h 7 l 2,3 h 2 c 1.108,0 2,0.892 2,2 v 17 c 0,1.108 -0.892,2 -2,2 H 5 C 3.892,27 3,26.108 3,25 V 8 C 3,6.892 3.892,6 5,6 Z"
       sodipodi:nodetypes="sccccssssssss" /><path
       id="rect2"
       style="fill:#ffffff;stroke:#000000;stroke-width:2"
       d="m 9,11.5 h 21 c 0.554,0 1.12018,0.459192 1,1 L 28,26 c -0.12018,0.540808 -0.446,1 -1,1 H 6 C 5.446,27 4.8798205,26.540808 5,26 L 8,12.5 c 0.1201795,-0.540808 0.446,-1 1,-1 z"
       sodipodi:nodetypes="sssssssss" /></g></svg>
